<?xml version="1.0" encoding="UTF-8"?>
<svg version="1.1" xmlns="http://www.w3.org/2000/svg" width="384" height="157">
<path d="M0 0 C8 0 8 0 10 1 C10 11.89 10 22.78 10 34 C22.54 34 35.08 34 48 34 C48 23.11 48 12.22 48 1 C50 0 50 0 59 0 C59 27.06 59 54.12 59 82 C50 82 50 82 48 81 C48 69.45 48 57.9 48 46 C35.46 46 22.92 46 10 46 C10 57.88 10 69.76 10 82 C6.7 82 3.4 82 0 82 C0 54.94 0 27.88 0 0 Z M10 35 C10 35.33 10 35.66 10 36 C22.54 36 35.08 36 48 36 C48 35.67 48 35.34 48 35 C35.46 35 22.92 35 10 35 Z M10 44 C10 44.33 10 44.66 10 45 C22.54 45 35.08 45 48 45 C48 44.67 48 44.34 48 44 C35.46 44 22.92 44 10 44 Z " fill="#F5CC16" transform="translate(33,34)"/>
<path d="M0 0 C0.99 -0.04125 1.98 -0.0825 3 -0.125 C10.25584665 -0.20157886 15.31348499 1.39976361 20.625 6.5 C21.78320312 8.59155273 21.78320312 8.59155273 22.625 10.5 C23.56314828 11.70351022 24.52285417 12.89043129 25.5 14.0625 C33.16335735 24.08669604 34.7801622 36.83465548 33.31640625 49.08203125 C32.22469177 55.21688694 30.17304301 60.82662299 27.625 66.5 C27.30917969 67.20511719 26.99335938 67.91023438 26.66796875 68.63671875 C25.625 70.5 25.625 70.5 22.9375 72.9375 C22.174375 73.783125 21.41125 74.62875 20.625 75.5 C20.67479584 78.260165 20.67479584 78.260165 21.625 80.5 C22.5840625 80.685625 22.5840625 80.685625 23.5625 80.875 C24.243125 81.08125 24.92375 81.2875 25.625 81.5 C25.955 82.16 26.285 82.82 26.625 83.5 C28.11 83.995 28.11 83.995 29.625 84.5 C29.955 85.16 30.285 85.82 30.625 86.5 C32.11 86.995 32.11 86.995 33.625 87.5 C34.875 89.9375 34.875 89.9375 35.625 92.5 C35.295 93.16 34.965 93.82 34.625 94.5 C33.00081255 94.58090971 31.37548255 94.63914995 29.75 94.6875 C28.84507812 94.72230469 27.94015625 94.75710937 27.0078125 94.79296875 C25.82832031 94.64794922 25.82832031 94.64794922 24.625 94.5 C23.965 93.51 23.305 92.52 22.625 91.5 C21.14 91.005 21.14 91.005 19.625 90.5 C19.295 89.51 18.965 88.52 18.625 87.5 C17.985625 87.355625 17.34625 87.21125 16.6875 87.0625 C15.6665625 86.7840625 15.6665625 86.7840625 14.625 86.5 C13.49609375 84.46484375 13.49609375 84.46484375 12.625 82.5 C12.04121582 82.53029297 11.45743164 82.56058594 10.85595703 82.59179688 C8.15409898 82.73049048 5.45205806 82.86526126 2.75 83 C1.37328125 83.07154297 1.37328125 83.07154297 -0.03125 83.14453125 C-2.81210159 83.28161548 -5.5926683 83.39742217 -8.375 83.5 C-9.28354736 83.53569092 -10.19209473 83.57138184 -11.12817383 83.6081543 C-17.81332144 83.75999087 -22.01732472 82.65563275 -27.375 78.5 C-29.0625 76.125 -29.0625 76.125 -30.375 73.5 C-31.33620112 72.40069527 -32.31753828 71.31884501 -33.3125 70.25 C-41.04522643 61.32762335 -42.77028995 50.00982897 -42.25 38.5 C-41.15053402 27.16800406 -37.80887403 19.05499193 -30.375 10.5 C-29.36536467 9.17394786 -28.36366506 7.84175973 -27.375 6.5 C-24.77861161 3.16178635 -22.48042037 3.05265274 -18.375 2.5 C-16.89386719 2.00693359 -16.89386719 2.00693359 -15.3828125 1.50390625 C-10.32346592 0.03315047 -5.23493769 0.05410788 0 0 Z M-14.5859375 9.55859375 C-16.375 10.5 -16.375 10.5 -19.25 11 C-19.95125 11.165 -20.6525 11.33 -21.375 11.5 C-22.07437532 12.81647119 -22.74229133 14.15022151 -23.375 15.5 C-23.98988281 15.60699219 -24.60476562 15.71398438 -25.23828125 15.82421875 C-28.35412287 16.80966774 -28.95581166 18.48687789 -30.5 21.3125 C-36.03911981 32.1803933 -36.58205915 43.94372328 -33.55078125 55.6953125 C-32.11967881 61.03869772 -32.11967881 61.03869772 -28.30078125 64.55078125 C-27.66527344 64.86402344 -27.02976563 65.17726562 -26.375 65.5 C-26.22804687 66.15613281 -26.08109375 66.81226563 -25.9296875 67.48828125 C-25.74664062 68.15214844 -25.56359375 68.81601563 -25.375 69.5 C-23.17331679 70.82522282 -23.17331679 70.82522282 -20.5 71.6875 C-19.61570313 72.01105469 -18.73140625 72.33460937 -17.8203125 72.66796875 C-8.12400619 75.96719119 2.21427399 75.55670246 11.625 71.5 C12.511875 71.273125 13.39875 71.04625 14.3125 70.8125 C19.91393811 67.6333054 23.13813598 61.38145197 25.1015625 55.421875 C28.31321251 43.6298466 27.52538292 29.99587163 21.4375 19.25 C20.839375 18.3425 20.24125 17.435 19.625 16.5 C18.635 16.5 17.645 16.5 16.625 16.5 C14.56016876 14.87449456 12.58761754 13.23876461 10.625 11.5 C5.60926808 7.26797619 0.38938545 6.04834471 -6.0703125 6.16796875 C-9.31454273 6.63535785 -11.76405426 7.945286 -14.5859375 9.55859375 Z M-11.375 75.5 C-11.375 75.83 -11.375 76.16 -11.375 76.5 C-6.755 76.5 -2.135 76.5 2.625 76.5 C2.625 76.17 2.625 75.84 2.625 75.5 C-1.995 75.5 -6.615 75.5 -11.375 75.5 Z " fill="#000000" transform="translate(166.375,33.5)"/>
<path d="M0 0 C1.18390805 7.10344828 1.18390805 7.10344828 0.5 10.4375 C-1.843169 12.87830104 -4.73622723 12.53374675 -8 13 C-9.16666667 14.91666667 -9.16666667 14.91666667 -10 17 C-12.5 18.125 -12.5 18.125 -15 19 C-17.05270463 20.84188612 -17.05270463 20.84188612 -18 23 C-19.485 23.495 -19.485 23.495 -21 24 C-21.66 24.66 -22.32 25.32 -23 26 C-25 28 -25 28 -28 29 C-28.33 29.66 -28.66 30.32 -29 31 C-30.485 31.495 -30.485 31.495 -32 32 C-32.495 32.99 -32.495 32.99 -33 34 C-34.485 34.495 -34.485 34.495 -36 35 C-37.37868281 36.62935241 -38.71274093 38.29749607 -40 40 C-42.16043943 42.16043943 -43.09038239 42.4544467 -46 43 C-48 43 -48 43 -49.39404297 41.63208008 C-49.92400879 41.09349365 -50.45397461 40.55490723 -51 40 C-53.60585717 38.35985136 -56.36223254 37.04259442 -59.125 35.6875 C-59.846875 35.30271484 -60.56875 34.91792969 -61.3125 34.52148438 C-66.28610621 32.09220518 -69.62868142 31.64653503 -74.97363281 33.2019043 C-77.75279701 34.29649318 -79.96564163 35.72265522 -82.3125 37.5625 C-85.28068437 39.86152847 -87.3550731 41.1882818 -91 42 C-91.61875 42.639375 -92.2375 43.27875 -92.875 43.9375 C-95.42631339 46.41377476 -97.66007871 46.8866929 -101 48 C-102.3743291 49.29103643 -103.70896357 50.6256709 -105 52 C-108.79098883 54.56147894 -112.78644103 56.26500513 -117 58 C-119 55 -119 55 -119.1875 51.5625 C-118 48 -118 48 -116.31518555 47.02978516 C-115.5962915 46.76472168 -114.87739746 46.4996582 -114.13671875 46.2265625 C-108.17709043 43.77920645 -102.99779297 40.33546559 -97.625 36.8125 C-95.68155299 35.54531142 -93.73632146 34.28085425 -91.7890625 33.01953125 C-90.94037598 32.46370361 -90.09168945 31.90787598 -89.21728516 31.33520508 C-87 30 -87 30 -84 29 C-83.401875 28.38125 -82.80375 27.7625 -82.1875 27.125 C-79.68149263 24.69059284 -77.16380159 23.43809163 -74 22 C-74 21.34 -74 20.68 -74 20 C-72.35 20 -70.7 20 -69 20 C-68.79375 20.639375 -68.5875 21.27875 -68.375 21.9375 C-67.10461791 24.34925077 -67.10461791 24.34925077 -63.875 24.75 C-62.92625 24.8325 -61.9775 24.915 -61 25 C-61 25.66 -61 26.32 -61 27 C-60.40832031 27.12117188 -59.81664062 27.24234375 -59.20703125 27.3671875 C-52.50551065 28.78839089 -52.50551065 28.78839089 -49.3125 30.125 C-46.44938126 31.20834223 -44.03472369 31.14114994 -41 31 C-40.731875 30.360625 -40.46375 29.72125 -40.1875 29.0625 C-39 27 -39 27 -36 26 C-35.34 25.34 -34.68 24.68 -34 24 C-32 22 -32 22 -29 21 C-28.195625 20.175 -27.39125 19.35 -26.5625 18.5 C-24.02184182 16.02130909 -23.2511255 15.69666975 -20 15 C-19.67 14.01 -19.34 13.02 -19 12 C-18.01 11.67 -17.02 11.34 -16 11 C-15.67 10.34 -15.34 9.68 -15 9 C-14.01 8.67 -13.02 8.34 -12 8 C-11.67 7.34 -11.34 6.68 -11 6 C-10.01 6 -9.02 6 -8 6 C-7.814375 4.7934375 -7.814375 4.7934375 -7.625 3.5625 C-7.41875 2.716875 -7.2125 1.87125 -7 1 C-4.53721199 -0.231394 -2.7204945 -0.07159196 0 0 Z M-5 1 C-1 2 -1 2 -1 2 Z M-117 48 C-113 49 -113 49 -113 49 Z " fill="#EFCA22" transform="translate(328,44)"/>
<path d="M0 0 C2.31 0 4.62 0 7 0 C7 15.84 7 31.68 7 48 C4.69 48 2.38 48 0 48 C0 32.16 0 16.32 0 0 Z " fill="#F0CD28" transform="translate(106,68)"/>
<path d="M0 0 C1.32 0 2.64 0 4 0 C4 13.86 4 27.72 4 42 C2.68 42 1.36 42 0 42 C0 28.14 0 14.28 0 0 Z " fill="#F8CA12" transform="translate(108,72)"/>
<path d="M0 0 C0.98484375 0.01804687 1.9696875 0.03609375 2.984375 0.0546875 C4.10585938 0.08949219 4.10585938 0.08949219 5.25 0.125 C6.70766679 3.41053467 7.52534114 6.02655783 7.5 9.625 C7.50515625 10.3571875 7.5103125 11.089375 7.515625 11.84375 C7.25 14.125 7.25 14.125 5.25 19.125 C1.62 19.125 -2.01 19.125 -5.75 19.125 C-8.38163857 13.12157451 -10.31991674 8.67904252 -9.75 2.125 C-6.40060119 0.09941119 -3.88037449 -0.09238987 0 0 Z M-7.75 3.125 C-6.75 5.125 -6.75 5.125 -6.75 5.125 Z M-8.75 5.125 C-7.75 8.125 -7.75 8.125 -7.75 8.125 Z M-4.75 5.125 C-5.42673447 8.52820934 -5.42673447 8.52820934 -5.75 12.125 C-5.09 12.785 -4.43 13.445 -3.75 14.125 C-1.7246176 14.21524853 -1.7246176 14.21524853 0.25 13.5625 C2.25 13.125 2.25 13.125 4.25 14.125 C4.92673447 10.72179066 4.92673447 10.72179066 5.25 7.125 C4.59 6.465 3.93 5.805 3.25 5.125 C1.2246176 5.03475147 1.2246176 5.03475147 -0.75 5.6875 C-2.75 6.125 -2.75 6.125 -4.75 5.125 Z " fill="#010101" transform="translate(287.75,105.875)"/>
<path d="M0 0 C0.66 0 1.32 0 2 0 C2 26.07 2 52.14 2 79 C1.01 79.495 1.01 79.495 0 80 C0 53.6 0 27.2 0 0 Z " fill="#817139" transform="translate(30,35)"/>
<path d="M0 0 C1.79260132 0.05995322 3.58425795 0.1487241 5.375 0.25 C6.87160156 0.31960937 6.87160156 0.31960937 8.3984375 0.390625 C11 1 11 1 12.3359375 2.76953125 C13.96260993 8.23323687 13.62370506 13.91657145 11 19 C9.906875 18.979375 8.81375 18.95875 7.6875 18.9375 C4.05615809 18.81455548 4.05615809 18.81455548 1 20 C-2.58825662 14.20950863 -3.56001146 10.68576339 -2 4 C-1.36367071 2.65192461 -0.70362336 1.31420561 0 0 Z M0 6 C-0.30523962 10.65088715 -0.30523962 10.65088715 1 15 C2.11375 14.649375 3.2275 14.29875 4.375 13.9375 C8 13 8 13 10 14 C10.68493373 11.14221967 10.68493373 11.14221967 11 8 C10.34 7.01 9.68 6.02 9 5 C8.34 5 7.68 5 7 5 C5.4840625 4.9690625 5.4840625 4.9690625 3.9375 4.9375 C1.11061712 4.65874776 1.11061712 4.65874776 0 6 Z " fill="#000000" transform="translate(226,106)"/>
<path d="M0 0 C2 1 2 1 2.62109375 2.609375 C3.13369428 5.84351443 3.09280305 8.97727051 3.0625 12.25 C3.05347656 13.51328125 3.04445313 14.7765625 3.03515625 16.078125 C3.02355469 17.04234375 3.01195312 18.0065625 3 19 C2.34 19 1.68 19 1 19 C0.67 15.37 0.34 11.74 0 8 C-0.33 11.3 -0.66 14.6 -1 18 C-1.33 18 -1.66 18 -2 18 C-2 14.04 -2 10.08 -2 6 C-2.99 6.495 -2.99 6.495 -4 7 C-4.46898963 9.8159849 -4.46898963 9.8159849 -4.625 13.0625 C-4.69976562 14.16722656 -4.77453125 15.27195312 -4.8515625 16.41015625 C-4.90054687 17.26480469 -4.94953125 18.11945313 -5 19 C-6.65 19 -8.3 19 -10 19 C-10 13.39 -10 7.78 -10 2 C-5.98936074 -0.00531963 -4.32816129 -0.28227139 0 0 Z M-5 1 C-5 1.33 -5 1.66 -5 2 C-3.35 2 -1.7 2 0 2 C0 1.67 0 1.34 0 1 C-1.65 1 -3.3 1 -5 1 Z " fill="#000000" transform="translate(308,105)"/>
<path d="M0 0 C1.18390805 7.10344828 1.18390805 7.10344828 0.5 10.4375 C-1.843169 12.87830104 -4.73622723 12.53374675 -8 13 C-9.16666667 14.91666667 -9.16666667 14.91666667 -10 17 C-12.625 18.25 -12.625 18.25 -15 19 C-14.67 17.02 -14.34 15.04 -14 13 C-14.66 12.67 -15.32 12.34 -16 12 C-15.67 11.01 -15.34 10.02 -15 9 C-14.01 8.67 -13.02 8.34 -12 8 C-11.67 7.34 -11.34 6.68 -11 6 C-10.01 6 -9.02 6 -8 6 C-7.87625 5.195625 -7.7525 4.39125 -7.625 3.5625 C-7.41875 2.716875 -7.2125 1.87125 -7 1 C-4.53721199 -0.231394 -2.7204945 -0.07159196 0 0 Z M-5 1 C-1 2 -1 2 -1 2 Z " fill="#E7C821" transform="translate(328,44)"/>
<path d="M0 0 C1.98 0 3.96 0 6 0 C6 0.66 6 1.32 6 2 C6.66 2.33 7.32 2.66 8 3 C9.12589491 6.37768474 9.13294275 9.00812072 9.125 12.5625 C9.12757813 13.71878906 9.13015625 14.87507813 9.1328125 16.06640625 C9 19 9 19 8 21 C4.95613276 21.08226668 2.92824652 20.97608217 0 20 C-0.66 20.33 -1.32 20.66 -2 21 C-2.0543965 18.62468606 -2.09385864 16.25064117 -2.125 13.875 C-2.14175781 13.20984375 -2.15851563 12.5446875 -2.17578125 11.859375 C-2.21847278 7.50483944 -1.59996217 4.04399886 0 0 Z M4 7 C4 10.63 4 14.26 4 18 C4.33 18 4.66 18 5 18 C5 14.37 5 10.74 5 7 C4.67 7 4.34 7 4 7 Z M6 9 C6 11.64 6 14.28 6 17 C6.99 17.495 6.99 17.495 8 18 C8 15.03 8 12.06 8 9 C7.34 9 6.68 9 6 9 Z " fill="#000000" transform="translate(264,103)"/>
<path d="M0 0 C2.475 0.495 2.475 0.495 5 1 C5 4.96 5 8.92 5 13 C6.32 13 7.64 13 9 13 C10.28446919 10.43106162 10.32977144 8.23423663 10.5625 5.375 C10.64628906 4.37210937 10.73007812 3.36921875 10.81640625 2.3359375 C10.87699219 1.56507812 10.93757813 0.79421875 11 0 C11.66 0 12.32 0 13 0 C13 5.61 13 11.22 13 17 C9.87110801 17.782223 7.8599909 18.11433318 4.75 18.0625 C2.89375 18.0315625 2.89375 18.0315625 1 18 C-0.2039337 14.24600202 -0.09877617 10.66782588 -0.0625 6.75 C-0.05347656 5.48671875 -0.04445312 4.2234375 -0.03515625 2.921875 C-0.02355469 1.95765625 -0.01195312 0.9934375 0 0 Z M10 15 C11 17 11 17 11 17 Z " fill="#000000" transform="translate(248,107)"/>
<path d="M0 0 C1.670625 0.061875 1.670625 0.061875 3.375 0.125 C3.375 1.115 3.375 2.105 3.375 3.125 C1.395 4.115 1.395 4.115 -0.625 5.125 C1.025 5.455 2.675 5.785 4.375 6.125 C4.54182272 11.04627034 4.62328052 14.62843896 2.375 19.125 C1.385 18.795 0.395 18.465 -0.625 18.125 C-2.28862417 17.77679959 -3.95495171 17.44095508 -5.625 17.125 C-5.955 16.135 -6.285 15.145 -6.625 14.125 C-5.305 13.465 -3.985 12.805 -2.625 12.125 C-3.3675 11.0421875 -3.3675 11.0421875 -4.125 9.9375 C-5.71815671 6.95033117 -6.07364851 5.44499901 -5.625 2.125 C-3.625 0.125 -3.625 0.125 0 0 Z M-3.625 4.125 C-2.625 6.125 -2.625 6.125 -2.625 6.125 Z M0.375 11.125 C1.375 14.125 1.375 14.125 1.375 14.125 Z " fill="#010101" transform="translate(217.625,106.875)"/>
<path d="M0 0 C2.64 0.33 5.28 0.66 8 1 C8.33 1.99 8.66 2.98 9 4 C7.02 4.99 7.02 4.99 5 6 C5.474375 6.350625 5.94875 6.70125 6.4375 7.0625 C8.72268946 9.89613493 8.80519564 12.4285867 9 16 C7 18 7 18 5.0546875 18.1953125 C3.03645833 18.13020833 1.01822917 18.06510417 -1 18 C-1 17.01 -1 16.02 -1 15 C2.465 14.505 2.465 14.505 6 14 C5.01 13.67 4.02 13.34 3 13 C0.21222424 11.07000139 -0.0201415 9.90600633 -0.75 6.5 C-1 3 -1 3 0 0 Z M2 4 C3 7 3 7 3 7 Z " fill="#000000" transform="translate(315,106)"/>
<path d="M0 0 C6.75 1.75 6.75 1.75 9 4 C8.6442194 7.37991574 7.64284201 10.04288438 6 13 C3.03 12.505 3.03 12.505 0 12 C-0.19477739 10.37585622 -0.38059458 8.75063577 -0.5625 7.125 C-0.66691406 6.22007813 -0.77132812 5.31515625 -0.87890625 4.3828125 C-1 2 -1 2 0 0 Z " fill="#F0CE15" transform="translate(106,49)"/>
<path d="M0 0 C0.33 0 0.66 0 1 0 C1 12.54 1 25.08 1 38 C-12.86 38 -26.72 38 -41 38 C-40.67 37.01 -40.34 36.02 -40 35 C-27.13 35 -14.26 35 -1 35 C-0.67 23.45 -0.34 11.9 0 0 Z " fill="#FBCB2B" transform="translate(83,34)"/>
<path d="M0 0 C0.33 0 0.66 0 1 0 C1 26.73 1 53.46 1 81 C0.67 81 0.34 81 0 81 C0 54.27 0 27.54 0 0 Z " fill="#BCC05D" transform="translate(93,35)"/>
<path d="M0 0 C3.12693276 6.25386552 3.12693276 6.25386552 3.1328125 10.9375 C3.13410156 11.91460937 3.13539062 12.89171875 3.13671875 13.8984375 C3.13285156 14.92195313 3.12898438 15.94546875 3.125 17 C3.12886719 18.02351563 3.13273437 19.04703125 3.13671875 20.1015625 C3.13542969 21.07867187 3.13414063 22.05578125 3.1328125 23.0625 C3.13112061 24.41021484 3.13112061 24.41021484 3.12939453 25.78515625 C3 28 3 28 2 30 C1.34 30 0.68 30 0 30 C0 20.1 0 10.2 0 0 Z " fill="#F1CA0A" transform="translate(35,38)"/>
<path d="M0 0 C0.66 0 1.32 0 2 0 C4.25806452 20.48387097 4.25806452 20.48387097 2 25 C3.32 25.33 4.64 25.66 6 26 C6 26.66 6 27.32 6 28 C4.02 28 2.04 28 0 28 C0 18.76 0 9.52 0 0 Z " fill="#F9D120" transform="translate(83,88)"/>
<path d="M0 0 C-0.125 2.75 -0.125 2.75 -1 6 C-4.48706217 8.93230228 -7.47176819 10.46726685 -12 11 C-12.33 8.69 -12.66 6.38 -13 4 C-12.37351563 3.79503906 -11.74703125 3.59007813 -11.1015625 3.37890625 C-10.28429687 3.10949219 -9.46703125 2.84007813 -8.625 2.5625 C-7.81289062 2.29566406 -7.00078125 2.02882813 -6.1640625 1.75390625 C-1.12953368 0 -1.12953368 0 0 0 Z " fill="#F1CD1D" transform="translate(222,91)"/>
<path d="M0 0 C0.99 0 1.98 0 3 0 C3 7.92 3 15.84 3 24 C2.01 24 1.02 24 0 24 C0 16.08 0 8.16 0 0 Z " fill="#000000" transform="translate(242,100)"/>
<path d="M0 0 C0.78375 0.04125 1.5675 0.0825 2.375 0.125 C3.80357143 8.69642857 3.80357143 8.69642857 1.375 12.125 C1.045 11.135 0.715 10.145 0.375 9.125 C-1.605 9.455 -3.585 9.785 -5.625 10.125 C-6.84244727 6.47265818 -6.26702228 5.49546678 -4.625 2.125 C-2.625 0.125 -2.625 0.125 0 0 Z M-2.625 1.125 C1.375 2.125 1.375 2.125 1.375 2.125 Z " fill="#F2C418" transform="translate(325.625,43.875)"/>
<path d="M0 0 C0.66 0.33 1.32 0.66 2 1 C2 1.66 2 2.32 2 3 C3.65 3 5.3 3 7 3 C7 3.99 7 4.98 7 6 C6.01 6.33 5.02 6.66 4 7 C2.33289654 8.49985609 2.33289654 8.49985609 1 10 C0.34 9.67 -0.32 9.34 -1 9 C-0.67 7.68 -0.34 6.36 0 5 C-1.299375 5.7425 -1.299375 5.7425 -2.625 6.5 C-6.10749623 8.0477761 -8.24759458 8.26802896 -12 8 C-11.67 7.01 -11.34 6.02 -11 5 C-9.0187415 4.27954236 -7.01495907 3.61998741 -5 3 C-4.0925 2.443125 -3.185 1.88625 -2.25 1.3125 C-1.13625 0.6628125 -1.13625 0.6628125 0 0 Z M-11 6 C-7 7 -7 7 -7 7 Z " fill="#EAD12A" transform="translate(222,86)"/>
<path d="M0 0 C0.99 0 1.98 0 3 0 C3 5.61 3 11.22 3 17 C2.01 17 1.02 17 0 17 C0 11.39 0 5.78 0 0 Z " fill="#010101" transform="translate(274,107)"/>
<path d="M0 0 C0.33 0 0.66 0 1 0 C1 15.84 1 31.68 1 48 C0.67 48 0.34 48 0 48 C0 32.16 0 16.32 0 0 Z " fill="#FBF99E" transform="translate(104,68)"/>
<path d="M0 0 C0.66 0.185625 1.32 0.37125 2 0.5625 C5.89330114 1.13027308 9.11375479 0.59281707 13 0 C12.34 1.98 11.68 3.96 11 6 C6.64477147 5.49357808 3.55760365 4.61588503 0 2 C0 1.34 0 0.68 0 0 Z " fill="#F9CA10" transform="translate(276,78)"/>
<path d="M0 0 C2.97 0.495 2.97 0.495 6 1 C6 2.32 6 3.64 6 5 C5.34 5.66 4.68 6.32 4 7 C3.67 7.66 3.34 8.32 3 9 C0.525 8.01 0.525 8.01 -2 7 C-1.34 4.69 -0.68 2.38 0 0 Z " fill="#F6D01D" transform="translate(233,79)"/>
<path d="M0 0 C0.721875 0.391875 1.44375 0.78375 2.1875 1.1875 C2.1875 2.1775 2.1875 3.1675 2.1875 4.1875 C1.40375 4.331875 0.62 4.47625 -0.1875 4.625 C-2.77671018 5.06548925 -2.77671018 5.06548925 -4.8125 6.1875 C-6.9375 5.25 -6.9375 5.25 -8.8125 4.1875 C-6.90562636 0.37375272 -4.09028579 -1.18163812 0 0 Z " fill="#F3D437" transform="translate(268.8125,71.8125)"/>
<path d="M0 0 C0.66 0.33 1.32 0.66 2 1 C2 1.99 2 2.98 2 4 C3.65 4.33 5.3 4.66 7 5 C6.67 5.66 6.34 6.32 6 7 C5.01 7.33 4.02 7.66 3 8 C1.61423077 9.62332967 0.27358732 11.28724465 -1 13 C-0.7215625 11.9790625 -0.7215625 11.9790625 -0.4375 10.9375 C0.0836907 7.4380767 -0.46472947 4.47925842 -1 1 C-0.67 0.67 -0.34 0.34 0 0 Z " fill="#F2D72D" transform="translate(289,71)"/>
<path d="M0 0 C0.33 0.66 0.66 1.32 1 2 C0.67 2.66 0.34 3.32 0 4 C-0.04022391 6.3329866 -0.04320247 8.66706666 0 11 C-0.99 11 -1.98 11 -3 11 C-2.67 9.68 -2.34 8.36 -2 7 C-2.99 7 -3.98 7 -5 7 C-5.33 7.99 -5.66 8.98 -6 10 C-6.66 9.34 -7.32 8.68 -8 8 C-6.49776416 3.79373966 -3.71449966 2.26099979 0 0 Z " fill="#E6BC21" transform="translate(251,67)"/>
<path d="M0 0 C0.99 0 1.98 0 3 0 C2.50769231 5.53846154 2.50769231 5.53846154 -0.0625 7.875 C-1.0215625 8.431875 -1.0215625 8.431875 -2 9 C-2.66 8.67 -3.32 8.34 -4 8 C-4 5 -4 5 -2.5625 3.4375 C-2.046875 2.963125 -1.53125 2.48875 -1 2 C-0.67 1.34 -0.34 0.68 0 0 Z " fill="#F1D41F" transform="translate(246,74)"/>
<path d="M0 0 C0.556875 0.28875 1.11375 0.5775 1.6875 0.875 C4.08494645 2.0413253 6.51596939 3.0339881 9 4 C9 4.99 9 5.98 9 7 C3.54545455 7.36363636 3.54545455 7.36363636 1.125 5.75 C0 4 0 4 0 0 Z " fill="#EFD424" transform="translate(277,80)"/>
<path d="M0 0 C0.33 0 0.66 0 1 0 C1 7.92 1 15.84 1 24 C-2.71478584 16.57042831 -0.95992853 8.05654302 0 0 Z " fill="#000000" transform="translate(240,100)"/>
<path d="M0 0 C1.32 0.66 2.64 1.32 4 2 C2 5 2 5 -1.4375 6.3125 C-5 7 -5 7 -8 5 C-5.03 4.34 -2.06 3.68 1 3 C0.67 2.01 0.34 1.02 0 0 Z " fill="#E6BE11" transform="translate(263,68)"/>
<path d="M0 0 C0.33 0 0.66 0 1 0 C1.33 7.59 1.66 15.18 2 23 C1.34 23.33 0.68 23.66 0 24 C0 16.08 0 8.16 0 0 Z " fill="#000000" transform="translate(246,100)"/>
<path d="M0 0 C0.625 1.875 0.625 1.875 1 4 C-1 6 -1 6 -3.625 6.125 C-4.40875 6.08375 -5.1925 6.0425 -6 6 C-6 5.01 -6 4.02 -6 3 C-5.195625 2.690625 -4.39125 2.38125 -3.5625 2.0625 C-1.10919595 1.23664655 -1.10919595 1.23664655 0 0 Z " fill="#F4CE13" transform="translate(297,69)"/>
<path d="M0 0 C0.66 0.33 1.32 0.66 2 1 C1.44271087 4.34373475 0.64826111 7.03312999 -1 10 C-2.32 9.67 -3.64 9.34 -5 9 C-4.01 9 -3.02 9 -2 9 C-1.7834375 7.0509375 -1.7834375 7.0509375 -1.5625 5.0625 C-1.125 1.125 -1.125 1.125 0 0 Z " fill="#E0C828" transform="translate(113,52)"/>
<path d="M0 0 C0.33 0 0.66 0 1 0 C1 6.93 1 13.86 1 21 C0.67 21 0.34 21 0 21 C-0.71148265 13.81949816 -1.25818438 7.12971149 0 0 Z " fill="#000000" transform="translate(133,65)"/>
<path d="M0 0 C1.98 0.495 1.98 0.495 4 1 C3.74438677 3.3431213 3.40729228 5.67843403 3 8 C2.01 8.495 2.01 8.495 1 9 C1 8.01 1 7.02 1 6 C0.34 5.67 -0.32 5.34 -1 5 C-0.34 5 0.32 5 1 5 C0.67 3.35 0.34 1.7 0 0 Z " fill="#F9D52B" transform="translate(325,47)"/>
<path d="M0 0 C0.33 0 0.66 0 1 0 C1 5.61 1 11.22 1 17 C-0.96732442 13.06535116 -1.25000664 11.59135682 -1.1875 7.375 C-1.18105469 6.41335937 -1.17460937 5.45171875 -1.16796875 4.4609375 C-1 2 -1 2 0 0 Z " fill="#010101" transform="translate(296,107)"/>
<path d="M0 0 C0 0.99 0 1.98 0 3 C-4.12168689 4.62950412 -6.70700357 5.26264601 -11 4 C-11 3.67 -11 3.34 -11 3 C-9.54293274 2.49632243 -8.08429904 1.99717444 -6.625 1.5 C-5.81289062 1.2215625 -5.00078125 0.943125 -4.1640625 0.65625 C-2 0 -2 0 0 0 Z " fill="#F8D016" transform="translate(222,91)"/>
<path d="M0 0 C0.99 0.495 0.99 0.495 2 1 C3.40764427 6.11870643 2.7455819 10.83827917 2 16 C1.67 16 1.34 16 1 16 C0.67 10.72 0.34 5.44 0 0 Z " fill="#000000" transform="translate(311,108)"/>
<path d="M0 0 C2.475 0.99 2.475 0.99 5 2 C5 2.99 5 3.98 5 5 C2.83125748 4.49396008 1.00032373 4.00016187 -1 3 C-0.67 2.01 -0.34 1.02 0 0 Z " fill="#F7CC1B" transform="translate(266,71)"/>
<path d="M0 0 C1.65 0.33 3.3 0.66 5 1 C4.67 2.32 4.34 3.64 4 5 C3.34 5 2.68 5 2 5 C2 4.34 2 3.68 2 3 C1.01 2.67 0.02 2.34 -1 2 C-0.67 1.34 -0.34 0.68 0 0 Z " fill="#EED914" transform="translate(309,56)"/>
<path d="M0 0 C0.99 0 1.98 0 3 0 C3 1.65 3 3.3 3 5 C2.01 5 1.02 5 0 5 C0 3.35 0 1.7 0 0 Z " fill="#010101" transform="translate(274,101)"/>
<path d="M0 0 C4.62 0 9.24 0 14 0 C14 0.33 14 0.66 14 1 C9.38 1 4.76 1 0 1 C0 0.67 0 0.34 0 0 Z " fill="#000000" transform="translate(156,32)"/>
<path d="M0 0 C0.33 0 0.66 0 1 0 C1 3.3 1 6.6 1 10 C0.67 10 0.34 10 0 10 C0 6.7 0 3.4 0 0 Z " fill="#000000" transform="translate(191,70)"/>
<path d="M0 0 C0.33 0 0.66 0 1 0 C1 3.3 1 6.6 1 10 C0.67 10 0.34 10 0 10 C0 6.7 0 3.4 0 0 Z " fill="#000000" transform="translate(201,69)"/>
<path d="M0 0 C0.99 1.485 0.99 1.485 2 3 C1.34 4.32 0.68 5.64 0 7 C0 4.69 0 2.38 0 0 Z " fill="#010101" transform="translate(278,117)"/>
<path d="M0 0 C0.33 0 0.66 0 1 0 C1 2.97 1 5.94 1 9 C0.67 9 0.34 9 0 9 C0 6.03 0 3.06 0 0 Z " fill="#000000" transform="translate(257,108)"/>
<path d="M0 0 C2.64 0 5.28 0 8 0 C8 0.33 8 0.66 8 1 C5.36 1 2.72 1 0 1 C0 0.67 0 0.34 0 0 Z " fill="#EECC52" transform="translate(84,117)"/>
<path d="M0 0 C2.64 0 5.28 0 8 0 C8 0.33 8 0.66 8 1 C5.36 1 2.72 1 0 1 C0 0.67 0 0.34 0 0 Z " fill="#F2C05D" transform="translate(33,117)"/>
<path d="M0 0 C0.33 0 0.66 0 1 0 C1 2.64 1 5.28 1 8 C0.67 8 0.34 8 0 8 C0 5.36 0 2.72 0 0 Z " fill="#000000" transform="translate(123,79)"/>
<path d="M0 0 C0.33 0 0.66 0 1 0 C1 2.64 1 5.28 1 8 C0.67 8 0.34 8 0 8 C0 5.36 0 2.72 0 0 Z " fill="#000000" transform="translate(123,65)"/>
<path d="M0 0 C2.64 0 5.28 0 8 0 C8 0.33 8 0.66 8 1 C5.36 1 2.72 1 0 1 C0 0.67 0 0.34 0 0 Z " fill="#F0F62F" transform="translate(33,32)"/>
<path d="M0 0 C2.31 0 4.62 0 7 0 C7 0.33 7 0.66 7 1 C4.69 1 2.38 1 0 1 C0 0.67 0 0.34 0 0 Z " fill="#000000" transform="translate(158,118)"/>
<path d="M0 0 C2.31 0 4.62 0 7 0 C7 0.33 7 0.66 7 1 C4.69 1 2.38 1 0 1 C0 0.67 0 0.34 0 0 Z " fill="#E9AC4A" transform="translate(106,117)"/>
<path d="M0 0 C0.33 0 0.66 0 1 0 C1 2.31 1 4.62 1 7 C0.67 7 0.34 7 0 7 C0 4.69 0 2.38 0 0 Z " fill="#000000" transform="translate(227,112)"/>
<path d="M0 0 C2.31 0 4.62 0 7 0 C7 0.33 7 0.66 7 1 C4.69 1 2.38 1 0 1 C0 0.67 0 0.34 0 0 Z " fill="#000000" transform="translate(284,105)"/>
<path d="M0 0 C2.31 0 4.62 0 7 0 C7 0.33 7 0.66 7 1 C4.69 1 2.38 1 0 1 C0 0.67 0 0.34 0 0 Z " fill="#000000" transform="translate(228,105)"/>
<path d="M0 0 C2.31 0 4.62 0 7 0 C7 0.33 7 0.66 7 1 C4.69 1 2.38 1 0 1 C0 0.67 0 0.34 0 0 Z " fill="#000000" transform="translate(159,41)"/>
<path d="M0 0 C2.31 0 4.62 0 7 0 C7 0.33 7 0.66 7 1 C4.69 1 2.38 1 0 1 C0 0.67 0 0.34 0 0 Z " fill="#F6F53B" transform="translate(84,32)"/>
<path d="M0 0 C1.98 0 3.96 0 6 0 C6 0.33 6 0.66 6 1 C4.02 1 2.04 1 0 1 C0 0.67 0 0.34 0 0 Z " fill="#000000" transform="translate(166,117)"/>
<path d="M0 0 C1.98 0 3.96 0 6 0 C6 0.33 6 0.66 6 1 C4.02 1 2.04 1 0 1 C0 0.67 0 0.34 0 0 Z " fill="#000000" transform="translate(152,117)"/>
<path d="M0 0 C1.98 0 3.96 0 6 0 C6 0.33 6 0.66 6 1 C4.02 1 2.04 1 0 1 C0 0.67 0 0.34 0 0 Z " fill="#000000" transform="translate(317,105)"/>
<path d="M0 0 C1.98 0 3.96 0 6 0 C6 0.33 6 0.66 6 1 C4.02 1 2.04 1 0 1 C0 0.67 0 0.34 0 0 Z " fill="#010100" transform="translate(214,105)"/>
<path d="M0 0 C0.33 0 0.66 0 1 0 C1 1.98 1 3.96 1 6 C0.67 6 0.34 6 0 6 C0 4.02 0 2.04 0 0 Z " fill="#000000" transform="translate(200,80)"/>
<path d="M0 0 C0.33 0 0.66 0 1 0 C1 1.98 1 3.96 1 6 C0.67 6 0.34 6 0 6 C0 4.02 0 2.04 0 0 Z " fill="#000000" transform="translate(190,80)"/>
<path d="M0 0 C0.33 0 0.66 0 1 0 C1 1.98 1 3.96 1 6 C0.67 6 0.34 6 0 6 C0 4.02 0 2.04 0 0 Z " fill="#000000" transform="translate(122,73)"/>
<path d="M0 0 C1.98 0 3.96 0 6 0 C6 0.33 6 0.66 6 1 C4.02 1 2.04 1 0 1 C0 0.67 0 0.34 0 0 Z " fill="#EEB942" transform="translate(107,66)"/>
<path d="M0 0 C0.33 0 0.66 0 1 0 C1 1.98 1 3.96 1 6 C0.67 6 0.34 6 0 6 C0 4.02 0 2.04 0 0 Z " fill="#000000" transform="translate(190,64)"/>
<path d="M0 0 C1.65 0 3.3 0 5 0 C5 0.33 5 0.66 5 1 C3.35 1 1.7 1 0 1 C0 0.67 0 0.34 0 0 Z " fill="#000000" transform="translate(267,125)"/>
<path d="M0 0 C0.33 0 0.66 0 1 0 C1 1.65 1 3.3 1 5 C0.67 5 0.34 5 0 5 C0 3.35 0 1.7 0 0 Z " fill="#000000" transform="translate(325,117)"/>
<path d="M0 0 C0.33 0 0.66 0 1 0 C1 1.65 1 3.3 1 5 C0.67 5 0.34 5 0 5 C0 3.35 0 1.7 0 0 Z " fill="#010101" transform="translate(283,113)"/>
<path d="M0 0 C1.32 0.33 2.64 0.66 4 1 C3.01 1.495 3.01 1.495 2 2 C1.34 1.34 0.68 0.68 0 0 Z " fill="#CB8E11" transform="translate(267,70)"/>
<path d="M0 0 C0.33 0 0.66 0 1 0 C1 1.65 1 3.3 1 5 C0.67 5 0.34 5 0 5 C0 3.35 0 1.7 0 0 Z " fill="#000000" transform="translate(200,63)"/>
<path d="M0 0 C0.33 0 0.66 0 1 0 C1 1.65 1 3.3 1 5 C0.67 5 0.34 5 0 5 C0 3.35 0 1.7 0 0 Z " fill="#C8B210" transform="translate(103,52)"/>
<path d="M0 0 C1.65 0 3.3 0 5 0 C5 0.33 5 0.66 5 1 C3.35 1 1.7 1 0 1 C0 0.67 0 0.34 0 0 Z " fill="#000000" transform="translate(167,42)"/>
<path d="M0 0 C1 4 1 4 1 4 Z " fill="#010101" transform="translate(291,114)"/>
<path d="M0 0 C4 1 4 1 4 1 Z " fill="#D6B120" transform="translate(211,102)"/>
<path d="M0 0 C1 4 1 4 1 4 Z " fill="#E1B811" transform="translate(207,95)"/>
<path d="M0 0 C1 4 1 4 1 4 Z " fill="#000000" transform="translate(124,87)"/>
<path d="M0 0 C1 4 1 4 1 4 Z " fill="#000000" transform="translate(134,86)"/>
<path d="M0 0 C1 4 1 4 1 4 Z " fill="#000000" transform="translate(124,61)"/>
<path d="M0 0 C1 4 1 4 1 4 Z " fill="#000000" transform="translate(189,60)"/>
<path d="M0 0 C1 4 1 4 1 4 Z " fill="#F9CA43" transform="translate(330,48)"/>
<path d="M0 0 C4 1 4 1 4 1 Z " fill="#F0CB40" transform="translate(108,48)"/>
<path d="M0 0 C0.99 0.495 0.99 0.495 2 1 C1.67 1.66 1.34 2.32 1 3 C0.67 2.01 0.34 1.02 0 0 Z " fill="#000000" transform="translate(192,46)"/>
<path d="M0 0 C4 1 4 1 4 1 Z " fill="#000000" transform="translate(171,33)"/>
<path d="M0 0 C4 1 4 1 4 1 Z " fill="#000000" transform="translate(151,33)"/>
<path d="M0 0 C3 1 3 1 3 1 Z " fill="#000000" transform="translate(319,125)"/>
<path d="M0 0 C3 1 3 1 3 1 Z " fill="#010101" transform="translate(298,125)"/>
<path d="M0 0 C3 1 3 1 3 1 Z " fill="#010101" transform="translate(274,125)"/>
<path d="M0 0 C3 1 3 1 3 1 Z " fill="#000000" transform="translate(232,125)"/>
<path d="M0 0 C3 1 3 1 3 1 Z " fill="#010101" transform="translate(212,125)"/>
<path d="M0 0 C0.99 0.495 0.99 0.495 2 1 C1.01 1.495 1.01 1.495 0 2 C0 1.34 0 0.68 0 0 Z " fill="#000000" transform="translate(222,121)"/>
<path d="M0 0 C3 1 3 1 3 1 Z " fill="#010101" transform="translate(314,119)"/>
<path d="" fill="#000000" transform="translate(0,0)"/>
<path d="M0 0 C0.66 0.66 1.32 1.32 2 2 C1.34 2 0.68 2 0 2 C0 1.34 0 0.68 0 0 Z " fill="#010101" transform="translate(212,115)"/>
<path d="M0 0 C3 1 3 1 3 1 Z " fill="#000000" transform="translate(172,116)"/>
<path d="" fill="#010101" transform="translate(0,0)"/>
<path d="" fill="#000000" transform="translate(0,0)"/>
<path d="" fill="#000000" transform="translate(0,0)"/>
<path d="M0 0 C3 1 3 1 3 1 Z " fill="#000000" transform="translate(274,99)"/>
<path d="" fill="#010000" transform="translate(0,0)"/>
<path d="" fill="#000000" transform="translate(0,0)"/>
<path d="" fill="#000000" transform="translate(0,0)"/>
<path d="" fill="#000000" transform="translate(0,0)"/>
<path d="" fill="#000005" transform="translate(0,0)"/>
<path d="" fill="#000000" transform="translate(0,0)"/>
<path d="" fill="#000000" transform="translate(0,0)"/>
<path d="" fill="#000000" transform="translate(0,0)"/>
<path d="" fill="#000000" transform="translate(0,0)"/>
<path d="" fill="#000000" transform="translate(0,0)"/>
<path d="" fill="#000000" transform="translate(0,0)"/>
<path d="" fill="#000000" transform="translate(0,0)"/>
<path d="" fill="#000000" transform="translate(0,0)"/>
<path d="" fill="#EFD45D" transform="translate(0,0)"/>
<path d="M0 0 C3 1 3 1 3 1 Z " fill="#010101" transform="translate(148,34)"/>
<path d="M0 0 C2 1 2 1 2 1 Z " fill="#010101" transform="translate(315,125)"/>
<path d="M0 0 C2 1 2 1 2 1 Z " fill="#010101" transform="translate(309,125)"/>
<path d="M0 0 C2 1 2 1 2 1 Z " fill="#020202" transform="translate(289,125)"/>
<path d="M0 0 C2 1 2 1 2 1 Z " fill="#010101" transform="translate(284,125)"/>
<path d="M0 0 C2 1 2 1 2 1 Z " fill="#000000" transform="translate(259,125)"/>
<path d="M0 0 C2 1 2 1 2 1 Z " fill="#000000" transform="translate(255,125)"/>
<path d="M0 0 C2 1 2 1 2 1 Z " fill="#000000" transform="translate(251,125)"/>
<path d="M0 0 C2 1 2 1 2 1 Z " fill="#000000" transform="translate(242,125)"/>
<path d="M0 0 C2 1 2 1 2 1 Z " fill="#010101" transform="translate(212,119)"/>
<path d="" fill="#000000" transform="translate(0,0)"/>
<path d="" fill="#010101" transform="translate(0,0)"/>
<path d="M0 0 C2 1 2 1 2 1 Z " fill="#000000" transform="translate(321,111)"/>
<path d="M0 0 C2 1 2 1 2 1 Z " fill="#010101" transform="translate(219,111)"/>
<path d="" fill="#010101" transform="translate(0,0)"/>
<path d="" fill="#000000" transform="translate(0,0)"/>
<path d="M0 0 C2 1 2 1 2 1 Z " fill="#010101" transform="translate(259,105)"/>
<path d="M0 0 C2 1 2 1 2 1 Z " fill="#000000" transform="translate(248,105)"/>
<path d="" fill="#000000" transform="translate(0,0)"/>
<path d="M0 0 C2 1 2 1 2 1 Z " fill="#000000" transform="translate(266,101)"/>
<path d="" fill="#010101" transform="translate(0,0)"/>
<path d="" fill="#000000" transform="translate(0,0)"/>
<path d="M0 0 C2 1 2 1 2 1 Z " fill="#000002" transform="translate(242,98)"/>
<path d="" fill="#010101" transform="translate(0,0)"/>
<path d="" fill="#000000" transform="translate(0,0)"/>
<path d="" fill="#000000" transform="translate(0,0)"/>
<path d="" fill="#000000" transform="translate(0,0)"/>
<path d="" fill="#000000" transform="translate(0,0)"/>
<path d="" fill="#000000" transform="translate(0,0)"/>
<path d="" fill="#000000" transform="translate(0,0)"/>
<path d="" fill="#000000" transform="translate(0,0)"/>
<path d="M0 0 C2 1 2 1 2 1 Z " fill="#F8EF39" transform="translate(282,87)"/>
<path d="M0 0 C2 1 2 1 2 1 Z " fill="#EAC449" transform="translate(237,85)"/>
<path d="M0 0 C2 1 2 1 2 1 Z " fill="#EBA610" transform="translate(261,67)"/>
<path d="" fill="#000000" transform="translate(0,0)"/>
<path d="" fill="#877D34" transform="translate(0,0)"/>
<path d="" fill="#000000" transform="translate(0,0)"/>
<path d="" fill="#000000" transform="translate(0,0)"/>
<path d="" fill="#000000" transform="translate(0,0)"/>
<path d="" fill="#000000" transform="translate(0,0)"/>
<path d="" fill="#000000" transform="translate(0,0)"/>
<path d="" fill="#000000" transform="translate(0,0)"/>
<path d="" fill="#000000" transform="translate(0,0)"/>
<path d="" fill="#000000" transform="translate(0,0)"/>
<path d="" fill="#000000" transform="translate(0,0)"/>
<path d="" fill="#000000" transform="translate(0,0)"/>
<path d="" fill="#DDB512" transform="translate(0,0)"/>
<path d="" fill="#000000" transform="translate(0,0)"/>
<path d="M0 0 C2 1 2 1 2 1 Z " fill="#010101" transform="translate(146,45)"/>
<path d="M0 0 C2 1 2 1 2 1 Z " fill="#010101" transform="translate(144,36)"/>
<path d="M0 0 C2 1 2 1 2 1 Z " fill="#010101" transform="translate(146,35)"/>
<path d="" fill="#000000" transform="translate(0,0)"/>
<path d="" fill="#000000" transform="translate(0,0)"/>
<path d="" fill="#000000" transform="translate(0,0)"/>
<path d="" fill="#000000" transform="translate(0,0)"/>
<path d="" fill="#000000" transform="translate(0,0)"/>
<path d="" fill="#000000" transform="translate(0,0)"/>
<path d="" fill="#000000" transform="translate(0,0)"/>
<path d="" fill="#000000" transform="translate(0,0)"/>
<path d="" fill="#010101" transform="translate(0,0)"/>
<path d="" fill="#000000" transform="translate(0,0)"/>
<path d="" fill="#000000" transform="translate(0,0)"/>
<path d="" fill="#000000" transform="translate(0,0)"/>
<path d="" fill="#010101" transform="translate(0,0)"/>
<path d="" fill="#000000" transform="translate(0,0)"/>
<path d="" fill="#000000" transform="translate(0,0)"/>
<path d="" fill="#000000" transform="translate(0,0)"/>
<path d="" fill="#000000" transform="translate(0,0)"/>
<path d="" fill="#000000" transform="translate(0,0)"/>
<path d="" fill="#000000" transform="translate(0,0)"/>
<path d="" fill="#000000" transform="translate(0,0)"/>
<path d="" fill="#000000" transform="translate(0,0)"/>
<path d="" fill="#010101" transform="translate(0,0)"/>
<path d="" fill="#010101" transform="translate(0,0)"/>
<path d="" fill="#000000" transform="translate(0,0)"/>
<path d="" fill="#000000" transform="translate(0,0)"/>
<path d="" fill="#010101" transform="translate(0,0)"/>
<path d="" fill="#000000" transform="translate(0,0)"/>
<path d="" fill="#010101" transform="translate(0,0)"/>
<path d="" fill="#010101" transform="translate(0,0)"/>
<path d="" fill="#010101" transform="translate(0,0)"/>
<path d="" fill="#000000" transform="translate(0,0)"/>
<path d="" fill="#000000" transform="translate(0,0)"/>
<path d="" fill="#000000" transform="translate(0,0)"/>
<path d="" fill="#000000" transform="translate(0,0)"/>
<path d="" fill="#010101" transform="translate(0,0)"/>
<path d="" fill="#010101" transform="translate(0,0)"/>
<path d="" fill="#000000" transform="translate(0,0)"/>
<path d="" fill="#000000" transform="translate(0,0)"/>
<path d="" fill="#000000" transform="translate(0,0)"/>
<path d="" fill="#000000" transform="translate(0,0)"/>
<path d="" fill="#010101" transform="translate(0,0)"/>
<path d="" fill="#000000" transform="translate(0,0)"/>
<path d="" fill="#000000" transform="translate(0,0)"/>
<path d="" fill="#000000" transform="translate(0,0)"/>
<path d="" fill="#010101" transform="translate(0,0)"/>
<path d="" fill="#000000" transform="translate(0,0)"/>
<path d="" fill="#000000" transform="translate(0,0)"/>
<path d="" fill="#000000" transform="translate(0,0)"/>
<path d="" fill="#000000" transform="translate(0,0)"/>
<path d="" fill="#000000" transform="translate(0,0)"/>
<path d="" fill="#000000" transform="translate(0,0)"/>
<path d="" fill="#000000" transform="translate(0,0)"/>
<path d="" fill="#000000" transform="translate(0,0)"/>
<path d="" fill="#000000" transform="translate(0,0)"/>
<path d="" fill="#000000" transform="translate(0,0)"/>
<path d="" fill="#B8AA00" transform="translate(0,0)"/>
<path d="" fill="#010101" transform="translate(0,0)"/>
<path d="" fill="#000000" transform="translate(0,0)"/>
<path d="" fill="#000000" transform="translate(0,0)"/>
<path d="" fill="#EDDB14" transform="translate(0,0)"/>
<path d="" fill="#010101" transform="translate(0,0)"/>
<path d="" fill="#000000" transform="translate(0,0)"/>
<path d="" fill="#000000" transform="translate(0,0)"/>
<path d="" fill="#BAA010" transform="translate(0,0)"/>
<path d="" fill="#AB9C19" transform="translate(0,0)"/>
<path d="" fill="#010101" transform="translate(0,0)"/>
<path d="" fill="#010101" transform="translate(0,0)"/>
<path d="" fill="#000000" transform="translate(0,0)"/>
<path d="" fill="#FFE764" transform="translate(0,0)"/>
<path d="" fill="#F9FF5E" transform="translate(0,0)"/>
<path d="" fill="#F9F269" transform="translate(0,0)"/>
<path d="" fill="#8C7E00" transform="translate(0,0)"/>
<path d="" fill="#FAF631" transform="translate(0,0)"/>
<path d="" fill="#FFF844" transform="translate(0,0)"/>
<path d="" fill="#EFBF24" transform="translate(0,0)"/>
<path d="" fill="#ECA81B" transform="translate(0,0)"/>
<path d="" fill="#FFED5C" transform="translate(0,0)"/>
<path d="" fill="#DCCD22" transform="translate(0,0)"/>
<path d="" fill="#DAC224" transform="translate(0,0)"/>
<path d="" fill="#FFE245" transform="translate(0,0)"/>
<path d="" fill="#FFED56" transform="translate(0,0)"/>
<path d="" fill="#C2A200" transform="translate(0,0)"/>
<path d="" fill="#F4F440" transform="translate(0,0)"/>
<path d="" fill="#FFF10F" transform="translate(0,0)"/>
<path d="" fill="#FFB656" transform="translate(0,0)"/>
<path d="" fill="#D4A954" transform="translate(0,0)"/>
<path d="" fill="#ECDA3F" transform="translate(0,0)"/>
<path d="" fill="#FFE55A" transform="translate(0,0)"/>
<path d="" fill="#E1CF33" transform="translate(0,0)"/>
<path d="" fill="#888509" transform="translate(0,0)"/>
<path d="" fill="#FFE248" transform="translate(0,0)"/>
<path d="" fill="#F2F5A7" transform="translate(0,0)"/>
<path d="" fill="#FBF926" transform="translate(0,0)"/>
<path d="" fill="#EEE230" transform="translate(0,0)"/>
<path d="" fill="#EDDF39" transform="translate(0,0)"/>
<path d="" fill="#FFFF43" transform="translate(0,0)"/>
<path d="" fill="#000000" transform="translate(0,0)"/>
<path d="" fill="#000000" transform="translate(0,0)"/>
<path d="" fill="#FCE75A" transform="translate(0,0)"/>
<path d="" fill="#FFF42B" transform="translate(0,0)"/>
<path d="" fill="#FFF04D" transform="translate(0,0)"/>
<path d="" fill="#000000" transform="translate(0,0)"/>
<path d="" fill="#FFE542" transform="translate(0,0)"/>
<path d="" fill="#000000" transform="translate(0,0)"/>
<path d="" fill="#000000" transform="translate(0,0)"/>
<path d="" fill="#F2B40E" transform="translate(0,0)"/>
<path d="" fill="#F0F84D" transform="translate(0,0)"/>
<path d="" fill="#E89917" transform="translate(0,0)"/>
<path d="" fill="#010101" transform="translate(0,0)"/>
<path d="" fill="#000000" transform="translate(0,0)"/>
<path d="" fill="#010101" transform="translate(0,0)"/>
<path d="" fill="#000000" transform="translate(0,0)"/>
<path d="" fill="#010101" transform="translate(0,0)"/>
<path d="" fill="#000000" transform="translate(0,0)"/>
<path d="" fill="#010101" transform="translate(0,0)"/>
<path d="" fill="#000000" transform="translate(0,0)"/>
<path d="" fill="#010101" transform="translate(0,0)"/>
<path d="" fill="#000000" transform="translate(0,0)"/>
<path d="" fill="#010101" transform="translate(0,0)"/>
<path d="" fill="#000000" transform="translate(0,0)"/>
<path d="" fill="#000000" transform="translate(0,0)"/>
</svg>
